<svg xmlns="http://www.w3.org/2000/svg" width="32" height="32" viewBox="0 0 32 32">
  <g id="button_arrow_1" transform="translate(-1547 -120)">
    <rect id="Rectangle_8316" data-name="Rectangle 8316" width="32" height="32" transform="translate(1547 120)" fill="none"/>
    <path id="arrow-right" d="M23.123,9.7l-3.87-3.717a1.037,1.037,0,0,0-1.42,0h0a.918.918,0,0,0,0,1.341l3.56,3.413H1a.976.976,0,0,0-1,.951H0a.976.976,0,0,0,1,.951H21.452l-3.62,3.432a.918.918,0,0,0,0,1.35h0a1.037,1.037,0,0,0,1.42,0l3.87-3.689A2.754,2.754,0,0,0,23.123,9.7Z" transform="translate(1551 124.296)" fill="#333"/>
  </g>
</svg>
