<svg xmlns="http://www.w3.org/2000/svg" width="20" height="20" viewBox="0 0 20 20">
  <g id="Group_957" data-name="Group 957" transform="translate(-1424 -591)">
    <rect id="Rectangle_800" data-name="Rectangle 800" width="20" height="20" transform="translate(1424 591)" fill="none"/>
    <path id="fi-rr-arrow-right" d="M15.416,8.517,12.83,5.931a.667.667,0,0,0-.943,0h0a.667.667,0,0,0,0,.943l2.37,2.371H.667A.667.667,0,0,0,0,9.912H0a.667.667,0,0,0,.667.667H14.3l-2.411,2.41a.667.667,0,0,0,0,.943h0a.667.667,0,0,0,.943,0l2.587-2.586A2.005,2.005,0,0,0,15.416,8.517Z" transform="translate(1426 591.264)" fill="#0074db"/>
  </g>
</svg>
