<svg xmlns="http://www.w3.org/2000/svg" width="40" height="40" viewBox="0 0 40 40">
  <g id="Group_1941" data-name="Group 1941" transform="translate(-349 -136)">
    <rect id="Rectangle_798" data-name="Rectangle 798" width="40" height="40" rx="8" transform="translate(349 136)" fill="#fff" opacity="0.5"/>
    <path id="fi-rr-arrow-left" d="M.73,12.686l3.233,3.233a.833.833,0,0,0,1.178,0h0a.833.833,0,0,0,0-1.178L2.178,11.779H19.167A.833.833,0,0,0,20,10.946h0a.833.833,0,0,0-.833-.833H2.128L5.141,7.1a.833.833,0,0,0,0-1.178h0a.833.833,0,0,0-1.178,0L.729,9.151a2.506,2.506,0,0,0,0,3.535Z" transform="translate(359 145.082)" fill="#228993"/>
  </g>
</svg>
