<svg xmlns="http://www.w3.org/2000/svg" xmlns:xlink="http://www.w3.org/1999/xlink" width="24" height="24" viewBox="0 0 24 24">
  <defs>
    <linearGradient id="linear-gradient" x1="0.5" x2="0.5" y2="1" gradientUnits="objectBoundingBox">
      <stop offset="0" stop-color="#37b0ae"/>
      <stop offset="1" stop-color="#228993"/>
    </linearGradient>
  </defs>
  <g id="Group_14535" data-name="Group 14535" transform="translate(-1224 -2792)">
    <path id="fi-rr-envelope" d="M15.833,1H4.167A4.172,4.172,0,0,0,0,5.167v10a4.172,4.172,0,0,0,4.167,4.167H15.833A4.172,4.172,0,0,0,20,15.167v-10A4.172,4.172,0,0,0,15.833,1ZM4.167,2.667H15.833A2.5,2.5,0,0,1,18.15,4.239l-6.382,6.382a2.506,2.506,0,0,1-3.537,0L1.85,4.239A2.5,2.5,0,0,1,4.167,2.667Zm11.667,15H4.167a2.5,2.5,0,0,1-2.5-2.5V6.417L7.053,11.8a4.173,4.173,0,0,0,5.893,0l5.387-5.383v8.75A2.5,2.5,0,0,1,15.833,17.667Z" transform="translate(1226 2794)" fill="url(#linear-gradient)"/>
    <rect id="Rectangle_2106" data-name="Rectangle 2106" width="24" height="24" transform="translate(1224 2792)" fill="none"/>
  </g>
</svg>
