<svg xmlns="http://www.w3.org/2000/svg" width="24" height="24" viewBox="0 0 24 24">
  <g id="like_icon" transform="translate(-666 -590)">
    <rect id="Rectangle_790" data-name="Rectangle 790" width="24" height="24" transform="translate(666 590)" fill="none"/>
    <path id="fi-rr-thumbs-up" d="M18.974,6.454A4.176,4.176,0,0,0,15.83,5.032H12.507l.28-1.686a2.508,2.508,0,0,0-1.723-2.8A2.538,2.538,0,0,0,8.02,1.827l-1.595,3.2H4.166A4.154,4.154,0,0,0,0,9.163v4.131a4.154,4.154,0,0,0,4.166,4.131H15.247a4.175,4.175,0,0,0,4.125-3.553l.587-4.131a4.108,4.108,0,0,0-.986-3.288ZM1.666,13.295V9.163a2.489,2.489,0,0,1,2.5-2.479H5.832v9.089H4.166A2.489,2.489,0,0,1,1.666,13.295Zm16.64-3.785-.588,4.131a2.5,2.5,0,0,1-2.47,2.133H7.5V6.464a.827.827,0,0,0,.192-.241L9.514,2.559a.9.9,0,0,1,1.435-.171.841.841,0,0,1,.194.694L10.7,5.726a.821.821,0,0,0,.188.668.836.836,0,0,0,.634.291H15.83a2.509,2.509,0,0,1,1.887.853,2.465,2.465,0,0,1,.588,1.972Z" transform="translate(668 593.074)" fill="#888"/>
  </g>
</svg>
