<svg id="save_post_icon-24px" xmlns="http://www.w3.org/2000/svg" width="24" height="24" viewBox="0 0 24 24">
  <rect id="Rectangle_806" data-name="Rectangle 806" width="24" height="24" fill="none"/>
  <path id="fi-rr-bookmark" d="M16.945,20a2.333,2.333,0,0,1-1.656-.7l-5.124-5.094L5.041,19.3a2.333,2.333,0,0,1-2.579.507A2.333,2.333,0,0,1,1,17.626V4.166A4.166,4.166,0,0,1,5.166,0h10a4.166,4.166,0,0,1,4.166,4.166v13.46a2.333,2.333,0,0,1-1.459,2.186,2.389,2.389,0,0,1-.927.185ZM5.166,1.666a2.5,2.5,0,0,0-2.5,2.5v13.46a.7.7,0,0,0,1.2.5h0l5.718-5.683a.833.833,0,0,1,1.175,0l5.712,5.682a.7.7,0,0,0,1.2-.5V4.166a2.5,2.5,0,0,0-2.5-2.5Z" transform="translate(2 2)" fill="#888"/>
</svg>
